<?xml version="1.0" encoding="iso-8859-1"?>
<!-- Uploaded to: SVG Repo, www.svgrepo.com, Generator: SVG Repo Mixer Tools -->
<svg version="1.1" id="Layer_1" xmlns="http://www.w3.org/2000/svg" xmlns:xlink="http://www.w3.org/1999/xlink" 
	 viewBox="0 0 512 512" xml:space="preserve">
<rect x="220.279" y="223.256" style="fill:#50412E;" width="71.442" height="119.07"/>
<polygon style="fill:#FF9811;" points="208.372,348.279 29.767,348.279 17.86,229.209 17.86,205.395 220.279,205.395 
	220.279,229.209 "/>
<polygon style="fill:#BF720D;" points="119.07,205.395 119.07,348.279 208.372,348.279 220.279,229.209 220.279,205.395 "/>
<path style="fill:#FFF0B4;" d="M37.458,116.093L0,134.822v88.434h238.14v-88.434l-37.458-18.728H37.458z"/>
<polygon style="fill:#FFDA44;" points="200.681,116.093 119.07,116.093 119.07,223.256 238.14,223.256 238.14,134.822 "/>
<path style="fill:#CCF8F3;" d="M238.14,187.535H0V230.1l11.907,119.069v46.738h35.721V366.14h142.884v29.767h35.721v-46.738
	L238.14,230.1V187.535z M35.721,223.256h166.698v5.063l-10.21,102.1H45.931l-10.21-102.1V223.256z"/>
<polygon style="fill:#00D7DF;" points="119.07,187.535 119.07,223.256 202.419,223.256 202.419,228.319 192.208,330.419 
	119.07,330.419 119.07,366.14 190.512,366.14 190.512,395.907 226.233,395.907 226.233,349.169 238.14,230.1 238.14,187.535 "/>
<polygon style="fill:#FF9811;" points="482.233,348.279 303.628,348.279 291.721,229.209 291.721,205.395 494.14,205.395 
	494.14,229.209 "/>
<polygon style="fill:#BF720D;" points="392.93,205.395 392.93,348.279 482.233,348.279 494.14,229.209 494.14,205.395 "/>
<path style="fill:#FFF0B4;" d="M311.319,116.093l-37.458,18.728v88.434H512v-88.434l-37.458-18.728H311.319z"/>
<polygon style="fill:#FFDA44;" points="474.542,116.093 392.93,116.093 392.93,223.256 512,223.256 512,134.822 "/>
<path style="fill:#CCF8F3;" d="M512,187.535H273.86V230.1l11.907,119.069v46.738h35.721V366.14h142.884v29.767h35.721v-46.738
	L512,230.1V187.535z M309.581,223.256h166.698v5.063l-10.21,102.1H319.792l-10.21-102.1V223.256z"/>
<polygon style="fill:#00D7DF;" points="392.93,187.535 392.93,223.256 476.279,223.256 476.279,228.319 466.069,330.419 
	392.93,330.419 392.93,366.14 464.372,366.14 464.372,395.907 500.093,395.907 500.093,349.169 512,230.1 512,187.535 "/>
</svg>