<?xml version="1.0" encoding="iso-8859-1"?>
<!-- Uploaded to: SVG Repo, www.svgrepo.com, Generator: SVG Repo Mixer Tools -->
<svg version="1.1" id="Layer_1" xmlns="http://www.w3.org/2000/svg" xmlns:xlink="http://www.w3.org/1999/xlink" 
	 viewBox="0 0 512 512" xml:space="preserve">
<polygon style="fill:#00D7DF;" points="452.465,113.026 503.329,82.507 484.95,51.878 365.88,123.319 384.26,153.949 
	416.744,134.458 416.744,424.402 386.977,424.402 386.977,460.122 482.233,460.122 482.233,424.402 452.465,424.402 "/>
<rect x="321.488" y="221.982" style="fill:#BF720D;" width="190.512" height="148.837"/>
<polygon style="fill:#CCF8F3;" points="127.74,153.949 146.12,123.319 27.05,51.878 8.671,82.507 59.535,113.026 59.535,424.402 
	29.767,424.402 29.767,460.122 125.023,460.122 125.023,424.402 95.256,424.402 95.256,134.458 "/>
<rect y="221.982" style="fill:#FF9811;" width="190.512" height="148.837"/>
<g>
	<rect y="335.098" style="fill:#BF720D;" width="273.86" height="35.721"/>
	<rect y="221.982" style="fill:#BF720D;" width="273.86" height="35.721"/>
</g>
<g>
	<rect x="238.14" y="335.098" style="fill:#50412E;" width="273.86" height="35.721"/>
	<rect x="238.14" y="221.982" style="fill:#50412E;" width="273.86" height="35.721"/>
</g>
<polygon style="fill:#CCF8F3;" points="194.923,460.122 256,353.237 317.077,460.122 358.218,460.122 271.506,308.378 256,317.239 
	240.494,308.378 153.782,460.122 "/>
<polygon style="fill:#00D7DF;" points="256,353.237 317.077,460.122 358.218,460.122 271.506,308.378 256,317.239 "/>
<path style="fill:#EA348B;" d="M256,132.681c-82.069,0-148.837,66.768-148.837,148.837S173.931,430.355,256,430.355
	s148.837-66.768,148.837-148.837S338.069,132.681,256,132.681z"/>
<path style="fill:#B02768;" d="M256,430.355c82.069,0,148.837-66.768,148.837-148.837S338.069,132.681,256,132.681"/>
<path style="fill:#CCF8F3;" d="M310.727,226.791c-14.617-14.618-34.054-22.67-54.727-22.67s-40.11,8.051-54.727,22.67
	c-14.618,14.618-22.669,34.054-22.669,54.727c0,20.673,8.05,40.109,22.669,54.727c14.617,14.618,34.054,22.67,54.727,22.67
	s40.11-8.052,54.727-22.67c14.618-14.618,22.669-34.054,22.669-54.727C333.395,260.845,325.345,241.409,310.727,226.791z"/>
<path style="fill:#00D7DF;" d="M256,358.914c20.673,0,40.11-8.052,54.727-22.67c14.618-14.618,22.669-34.054,22.669-54.727
	c0-20.673-8.05-40.109-22.669-54.727c-14.617-14.618-34.054-22.67-54.727-22.67"/>
</svg>