<?xml version="1.0" encoding="iso-8859-1"?>
<!-- Uploaded to: SVG Repo, www.svgrepo.com, Generator: SVG Repo Mixer Tools -->
<svg height="800px" width="800px" version="1.1" id="Layer_1" xmlns="http://www.w3.org/2000/svg" xmlns:xlink="http://www.w3.org/1999/xlink" 
	 viewBox="0 0 512.002 512.002" xml:space="preserve">
<path style="fill:#C7E624;" d="M76.285,435.716c-32.498-32.498-47.477-61.32-48.099-62.53l-5.014-9.766l197.455-239.754
	l74.719-8.484l49.437-30.021l82.054,82.054l-30.021,49.437l-8.484,74.719l-239.75,197.455l-9.766-5.013
	C137.605,483.191,108.783,468.213,76.285,435.716z"/>
<path style="fill:#9FBD00;" d="M76.285,435.716c44.34-44.34,309.526-309.526,309.526-309.526l41.028,41.028l-30.021,49.437
	l-8.484,74.719L148.582,488.827l-9.766-5.013C137.605,483.191,108.783,468.213,76.285,435.716z"/>
<path style="fill:#EFFF96;" d="M388.115,291.553l0.219-0.18l8.484-74.719l30.021-49.437l-82.054-82.055l-49.437,30.021
	l-74.719,8.484l-0.18,0.219c10.551,17.485,34.672,53.74,74.301,93.367S370.631,281.003,388.115,291.553z"/>
<path style="fill:#C7E624;" d="M388.115,291.553l0.219-0.18l8.484-74.719l30.021-49.437l-41.028-41.028
	c0,0-68.519,68.519-91.065,91.065C334.376,256.881,370.631,281.003,388.115,291.553z"/>
<path style="fill:#9FBD00;" d="M396.774,217.056l0.046-0.402l30.021-49.437l-82.055-82.055l-49.437,30.021l-0.402,0.046
	c7.728,12.25,22.589,33.404,45.507,56.322S384.523,209.328,396.774,217.056z"/>
<path style="fill:#6D8F00;" d="M396.774,217.056l0.046-0.402l30.021-49.437l-41.028-41.028c0,0-30.25,30.25-45.361,45.361
	C363.37,194.466,384.523,209.328,396.774,217.056z"/>
<path style="fill:#FF7C18;" d="M0.673,214.771C-4.086,155.476,16.562,98.09,57.326,57.327S155.475-4.085,214.769,0.674
	l-2.671,33.285c-49.523-3.975-97.33,13.149-131.162,46.98s-50.955,81.638-46.98,131.162L0.673,214.771z"/>
<path style="fill:#FFB42B;" d="M64.393,212.343c-3.287-40.943,10.992-80.588,39.176-108.772s67.83-42.462,108.772-39.176
	l-2.671,33.284c-31.171-2.502-61.238,8.251-82.489,29.503S95.175,178.5,97.677,209.672L64.393,212.343z"/>
<path style="fill:#FF7C18;" d="M297.23,511.327l2.671-33.285c49.523,3.975,97.33-13.149,131.162-46.98s50.955-81.638,46.98-131.162
	l33.285-2.671c4.759,59.294-15.889,116.681-56.653,157.443S356.524,516.087,297.23,511.327z"/>
<path style="fill:#FFB42B;" d="M299.656,447.608l2.674-33.285c31.17,2.503,61.237-8.25,82.488-29.502s32.005-51.318,29.504-82.489
	l33.284-2.671c3.287,40.943-10.992,80.588-39.176,108.772C380.246,436.616,340.6,450.896,299.656,447.608z"/>
</svg>